# xmcd
#
# Track frame offsets:
#	150
#	16275
#	35475
#
# Disc length: 782 seconds
#
# Revision: 0
# Processed by: cddbd v1.5.2PL0 Copyright (c) Steve Scherf et al.
# Submitted via: audiograbber 1.83.01
#
DISCID=1a030c03
DTITLE=Andreas Martin - Mit dir und für immer
DYEAR=1997
DGENRE=Schlager
TTITLE0=Mit dir und für immer (Radio Version)
TTITLE1=Ich bin wieder da
TTITLE2=Mit dir und für immer (Maxi Version)
EXTD=
EXTT0=
EXTT1=
EXTT2=
PLAYORDER=
